# AST/ASF file generated using VICON BodyLanguage
# -----------------------------------------------
:version 1.10
:name VICON
:units
  mass 1.0
  length 0.45
  angle deg
:documentation
   .ast/.asf automatically generated from VICON data using
   VICON BodyBuilder and BodyLanguage model FoxedUp or BRILLIANT.MOD
:root
   order TX TY TZ RX RY RZ
   axis XYZ
   position 0 0 0  
   orientation 0 0 0 
:bonedata
  begin
     id 1 
     name lhipjoint
     direction 0.62366 -0.717238 0.310833 
     length 2.53602 
     axis 0 0 0  XYZ
  end
  begin
     id 2 
     name lfemur
     direction 0.34202 -0.939693 0  
     length 7.40817  
     axis 0 0 20  XYZ
    dof rx ry rz
    limits (-160.0 20.0)
           (-70.0 70.0)
           (-60.0 70.0)
  end
  begin
     id 3 
     name ltibia
     direction 0.34202 -0.939693 0   
     length 7.7045   
     axis 0 0 20   XYZ
    dof rx
    limits (-10.0 170.0)
  end
  begin
     id 4 
     name lfoot
     direction 0.0673888 -0.185149 0.980397   
     length 2.09456   
     axis -90 7.62852e-016 20   XYZ
    dof rx rz
    limits (-45.0 90.0)
           (-70.0 20.0)
  end
  begin
     id 5 
     name ltoes
     direction 1.53575e-011 -4.21994e-011 1   
     length 1.05543   
     axis -90 7.62852e-016 20   XYZ
    dof rx
    limits (-90.0 20.0)
  end
  begin
     id 6 
     name rhipjoint
     direction -0.489018 -0.800347 0.346851   
     length 2.27268  
     axis 0 0 0  XYZ 
  end
  begin
     id 7 
     name rfemur
     direction -0.34202 -0.939693 0   
     length 7.55487   
     axis 0 0 -20   XYZ
    dof rx ry rz
    limits (-160.0 20.0)
           (-70.0 70.0)
           (-70.0 60.0)
  end
  begin
     id 8 
     name rtibia
     direction -0.34202 -0.939693 0   
     length 7.78969   
     axis 0 0 -20   XYZ
    dof rx
    limits (-10.0 170.0)
 end
 begin
     id 9 
     name rfoot
     direction -0.0859318 -0.236096 0.967923   
     length 2.19143  
     axis -90 -7.62852e-016 -20   XYZ
    dof rx rz
    limits (-45.0 90.0)
           (-20.0 70.0)
  end
  begin
     id 10 
     name rtoes
     direction -1.53538e-011 -4.21989e-011 1   
     length 1.09845   
     axis -90 -7.62852e-016 -20   XYZ
    dof rx
    limits (-90.0 20.0)
  end
  begin
     id 11 
     name lowerback
     direction -0.00762546 0.998978 -0.0445553   
     length 1.98161   
     axis 0 0 0   XYZ
    dof rx ry rz
    limits (-20.0 45.0)
           (-30.0 30.0)
           (-30.0 30.0)
  end
  begin
     id 12 
     name upperback
     direction 0.0422361 0.998867 -0.0219156   
     length 1.97558   
     axis 0 0 0   XYZ
    dof rx ry rz
    limits (-20.0 45.0)
           (-30.0 30.0)
           (-30.0 30.0)
  end
  begin
     id 13 
     name thorax
     direction 0.0442465 0.999021 7.47603e-005   
     length 1.97799   
     axis 0 0 0   XYZ
    dof rx ry rz
    limits (-20.0 45.0)
           (-30.0 30.0)
           (-30.0 30.0)
  end
  begin
     id 14 
     name lowerneck
     direction 0.00312169 0.984641 0.174564   
     length 1.78995   
     axis 0 0 0   XYZ
    dof rx ry rz
    limits (-20.0 45.0)
           (-30.0 30.0)
           (-30.0 30.0)
  end
  begin
     id 15 
     name upperneck
     direction -0.0383028 0.985255 -0.166749   
     length 1.83053   
     axis 0 0 0   XYZ
    dof rx ry rz
    limits (-20.0 45.0)
           (-30.0 30.0)
           (-30.0 30.0)
  end
  begin
     id 16
     name head
     direction -0.0129546 0.997059 -0.0755386  
     length 1.84088  
     axis 0 0 0   XYZ
    dof rx ry rz
    limits (-20.0 45.0)
           (-30.0 30.0)
           (-30.0 30.0)
  end
  begin
     id 17 
     name lclavicle
     direction 0.912857 0.370519 -0.171488  
     length 3.51279  
     axis 0 0 0   XYZ
    dof ry rz
    limits (-20.0 10.0)
           (0.0 20.0)
  end
  begin
     id 18 
     name lhumerus
     direction 1 -4.48962e-011 3.64361e-027   
     length 4.95663   
     axis 180 -30 -90   XYZ
    dof rx ry rz
    limits (-60.0 90.0)
           (-90.0 90.0)
           (-90.0 90.0)
  end
  begin
     id 19
     name lradius
     direction 1 -4.48974e-011 5.97202e-027   
     length 3.38177   
     axis 180 -30 -90   XYZ
    dof rx
    limits (-10.0 170.0)
  end
  begin
     id 20
     name lwrist
     direction 1 -4.4896e-011 9.83288e-027   
     length 1.69088   
     axis -9.31221e-015 90 90   XYZ
    dof ry
    limits (-180.0 0.0)
 end
  begin
     id 21 
     name lhand
     direction 1 -4.4902e-011 1.96551e-026   
     length 0.662909   
     axis -1.25475e-014 90 90   XYZ
    dof rx rz
    limits (-90.0 90.0)
           (-45.0 45.0)
  end
  begin
     id 22 
     name lfingers
     direction 1 -4.48971e-011 3.93277e-026   
     length 0.534454   
     axis -2.50945e-014 90 90   XYZ
    dof rx
    limits (0.0 90.0)
  end
  begin
     id 23
     name lthumb
     direction 0.707107 -6.34933e-011 0.707107   
     length 0.767373   
     axis -90 45 -4.80359e-014   XYZ
    dof rx rz
    limits (-45.0 45.0)
           (-45.0 45.0)
  end
  begin
     id 24 
     name rclavicle
     direction -0.900919 0.395364 -0.178976   
     length 3.40627  
     axis 0 0 0   XYZ 
    dof ry rz
    limits (-10.0 20.0)
           (-20.0 0.0)
  end
  begin
     id 25 
     name rhumerus
     direction -1 -4.48969e-011 1.03875e-027  
     length 5.08365   
     axis 180 30 90   XYZ
    dof rx ry rz
    limits (-90.0 60.0)
           (-90.0 90.0)
           (-90.0 90.0)
  end
  begin
     id 26 
     name rradius
     direction -1 -4.48951e-011 5.02733e-027   
     length 3.35984   
     axis 180 30 90   XYZ
    dof rx
    limits (-10.0 170.0)
  end
  begin
     id 27 
     name rwrist
     direction -1 -4.49011e-011 9.82828e-027   
     length 1.67992   
     axis -9.31221e-015 -90 -90   XYZ
    dof ry
    limits (-180.0 0.0)
  end
  begin
     id 28
     name rhand
     direction -1 -4.48894e-011 1.96774e-026   
     length 0.820764   
     axis -1.25475e-014 -90 -90   XYZ
    dof rx rz
    limits (-90.0 90.0)
           (-45.0 45.0)
  end
  begin
     id 29
     name rfingers
     direction -1 -4.49095e-011 3.92833e-026   
     length 0.661721   
     axis -2.50945e-014 -90 -90   XYZ
    dof rx
    limits (0.0 90.0)
  end
  begin
     id 30
     name rthumb
     direction -0.707107 -6.34881e-011 0.707107   
     length 0.950103   
     axis -90 -45 4.80359e-014   XYZ
    dof rx rz
    limits (-45.0 45.0)
           (-45.0 45.0)
  end
:hierarchy
  begin
    root lhipjoint rhipjoint lowerback
    lhipjoint lfemur
    lfemur ltibia
    ltibia lfoot
    lfoot ltoes
    rhipjoint rfemur
    rfemur rtibia
    rtibia rfoot
    rfoot rtoes
    lowerback upperback
    upperback thorax
    thorax lowerneck lclavicle rclavicle
    lowerneck upperneck
    upperneck head
    lclavicle lhumerus
    lhumerus lradius
    lradius lwrist
    lwrist lhand lthumb
    lhand lfingers
    rclavicle rhumerus
    rhumerus rradius
    rradius rwrist
    rwrist rhand rthumb
    rhand rfingers
  end

#!OML:ASF I:\golf\golf\golf 2\Subject 1\2002-09-07\Subject1.ASF
:FULLY-SPECIFIED
:DEGREES
77
root -8.02791 17.8004 0.177531 -122.565 85.6272 -136.532
lowerback 3.64523 1.42682 -1.89031
upperback 4.76199 1.96654 4.76291
thorax 2.64824 0.919149 5.98707
lowerneck -15.0879 -2.11049 1.31358
upperneck 38.6813 0.279656 -5.08812
head 16.4177 0.160544 -2.26601
rclavicle -1.82882e-014 -2.46493e-014
rhumerus -3.11946 -0.944705 -100.151
rradius 23.1284
rwrist -37.7984
rhand -16.649 -10.6585
rfingers 7.12502
rthumb 9.57402 -40.4209
lclavicle -1.82882e-014 -2.46493e-014
lhumerus -3.73493 -37.5287 109.157
lradius 23.1582
lwrist 39.1886
lhand 167.326 64.4009
lfingers 7.12502
lthumb -166.593 34.8523
rfemur -25.9339 -0.427598 11.4363
rtibia 27.5625
rfoot -9.73221 -11.4682
rtoes -4.92084
lfemur -28.4866 6.12321 -8.65067
ltibia 28.3285
lfoot -10.2845 -3.22072
ltoes -21.381
78
root -8.02518 17.8002 0.178861 -123.47 85.656 -137.45
lowerback 3.64761 1.43954 -1.87302
upperback 4.75111 1.98268 4.69121
thorax 2.63605 0.928403 5.90043
lowerneck -15.0645 -2.10346 1.38114
upperneck 38.626 0.262841 -5.09453
head 16.3808 0.161318 -2.28187
rclavicle 2.22639e-014 2.06736e-014
rhumerus -3.14054 -0.9417 -100.235
rradius 23.2678
rwrist -38.2261
rhand -16.3793 -10.6536
rfingers 7.12502
rthumb 9.83426 -40.4039
lclavicle 2.22639e-014 2.06736e-014
lhumerus -3.77334 -37.8932 109.167
lradius 23.0693
lwrist 39.0112
lhand 167.294 64.191
lfingers 7.12502
lthumb -166.624 34.6404
rfemur -25.9661 -0.581683 11.4046
rtibia 27.6227
rfoot -9.70523 -11.4156
rtoes -5.52452
lfemur -28.4705 6.04405 -8.68718
ltibia 28.3142
lfoot -10.2822 -3.27224
ltoes -20.6065
79
root -8.02222 17.7997 0.180592 -124.016 85.7059 -138.031
lowerback 3.63288 1.45188 -1.82595
upperback 4.71758 1.99785 4.58283
thorax 2.61183 0.938479 5.7579
lowerneck -15.0215 -2.1068 1.46577
upperneck 38.5867 0.21274 -5.06642
head 16.3454 0.156062 -2.29158
rclavicle 0 -8.74653e-015
rhumerus -3.17964 -1.02234 -100.359
rradius 23.3716
rwrist -38.5547
rhand -15.7862 -10.6941
rfingers 7.12502
rthumb 10.4064 -40.4165
lclavicle 0 -8.74653e-015
lhumerus -3.82658 -38.1224 109.157
lradius 22.8634
lwrist 38.4503
lhand 167.524 64.2429
lfingers 7.12502
lthumb -166.401 34.707
rfemur -26.0389 -0.700097 11.3589
rtibia 27.7063
rfoot -9.79373 -11.3275
rtoes -5.54121
lfemur -28.4528 6.01865 -8.73514
ltibia 28.2714
lfoot -10.23 -3.39864
ltoes -20.0956
80
root -8.01953 17.7979 0.180395 -124.585 85.7653 -138.634
lowerback 3.59286 1.43349 -1.85971
upperback 4.69764 1.97122 4.54063
thorax 2.61676 0.923931 5.73384
lowerneck -14.9958 -2.10094 1.45522
upperneck 38.604 0.225013 -5.05589
head 16.3489 0.162053 -2.28292
rclavicle -1.66979e-014 4.77083e-015
rhumerus -3.21179 -0.997362 -100.406
rradius 23.4442
rwrist -38.8631
rhand -14.9818 -10.8771
rfingers 7.12502
rthumb 11.1823 -40.5591
lclavicle -1.66979e-014 4.77083e-015
lhumerus -3.83551 -38.0577 109.195
lradius 22.5978
lwrist 37.5794
lhand 167.729 64.0915
lfingers 7.12502
lthumb -166.204 34.569
rfemur -26.1094 -0.85084 11.305
rtibia 27.776
rfoot -9.91206 -11.1792
rtoes -4.63497
lfemur -28.5135 6.10031 -8.87134
ltibia 28.2329
lfoot -10.1472 -3.43683
ltoes -20.7492
81
root -8.01677 17.7971 0.179667 -124.915 85.8227 -139.002
lowerback 3.54742 1.44229 -2.00966
upperback 4.68026 1.98022 4.6054
thorax 2.61729 0.923169 5.8889
lowerneck -14.989 -2.13046 1.33126
upperneck 38.6568 0.243738 -5.08041
head 16.3776 0.151425 -2.26925
rclavicle 1.27222e-014 4.13472e-014
rhumerus -3.20877 -1.04298 -100.324
rradius 23.4575
rwrist -39.1638
rhand -14.3933 -11.0417
rfingers 7.12502
rthumb 11.7499 -40.6921
lclavicle 1.27222e-014 4.13472e-014
lhumerus -3.80317 -37.9083 109.417
lradius 22.2334
lwrist 36.5337
lhand 167.862 64.059
lfingers 7.12502
lthumb -166.076 34.5452
rfemur -26.1665 -0.891063 11.2347
rtibia 27.8162
rfoot -10.0241 -11.0891
rtoes -3.38095
lfemur -28.5844 6.17223 -8.99004
ltibia 28.216
lfoot -10.0602 -3.44915
ltoes -20.9927
82
root -8.01347 17.7994 0.178577 -125.083 85.876 -139.162
lowerback 3.53582 1.48002 -2.08685
upperback 4.69172 2.02939 4.62399
thorax 2.62734 0.944954 5.95248
lowerneck -15.0354 -2.17508 1.24073
upperneck 38.7458 0.192733 -5.01293
head 16.4342 0.129179 -2.23527
rclavicle -3.97569e-015 7.15625e-015
rhumerus -3.19948 -0.995124 -100.293
rradius 23.5267
rwrist -39.6333
rhand -14.3962 -11.006
rfingers 7.12502
rthumb 11.747 -40.6566
lclavicle -3.97569e-015 7.15625e-015
lhumerus -3.79074 -37.848 109.578
lradius 21.8343
lwrist 35.4828
lhand 167.971 64.202
lfingers 7.12502
lthumb -165.971 34.6954
rfemur -26.157 -0.891485 11.1762
rtibia 27.8314
rfoot -9.95546 -11.0645
rtoes -4.20762
lfemur -28.4972 6.09443 -8.99903
ltibia 28.2176
lfoot -10.114 -3.41121
ltoes -20.2837
83
root -8.01049 17.8006 0.177823 -125.267 85.9053 -139.322
lowerback 3.5478 1.48601 -2.12405
upperback 4.7103 2.03701 4.62664
thorax 2.63801 0.947285 5.97661
lowerneck -15.0947 -2.16521 1.16526
upperneck 38.8159 0.213007 -4.9403
head 16.4881 0.13766 -2.18899
rclavicle -9.54166e-015 -4.05521e-014
rhumerus -3.22589 -0.764317 -100.334
rradius 23.5987
rwrist -40.01
rhand -14.6424 -10.8293
rfingers 7.12502
rthumb 11.5096 -40.4933
lclavicle -9.54166e-015 -4.05521e-014
lhumerus -3.72992 -37.6467 109.605
lradius 21.4
lwrist 34.406
lhand 168.159 64.2872
lfingers 7.12502
lthumb -165.79 34.7933
rfemur -26.1285 -0.933826 11.1558
rtibia 27.8316
rfoot -9.80636 -11.0585
rtoes -5.76766
lfemur -28.412 6.04303 -8.9951
ltibia 28.2375
lfoot -10.2703 -3.36358
ltoes -20.704
